<svg xmlns="http://www.w3.org/2000/svg" width="1020" height="860" viewBox="0 0 1020 860" color="#ffd400"><rect width="1020" height="860" fill="#0d0d0d"/><g transform="translate(61,18) scale(2)"><g fill="none" stroke="#ffd400" stroke-width="1.5" stroke-linecap="square" stroke-linejoin="miter"><path d="M3 12h18"/><path d="M7 8.5V12M16.5 8.5V12"/><rect x="10.25" y="9.75" width="3.5" height="3.5"/></g></g><text x="85" y="122" fill="#9c9c9c" font-family="Menlo" font-size="11" text-anchor="middle">timeline</text><g transform="translate(231,18) scale(2)"><g fill="none" stroke="#ffd400" stroke-width="1.5" stroke-linecap="square" stroke-linejoin="miter"><path d="M4 5.5h16v10L16.5 19H4z"/><circle cx="10" cy="11" r="2.4"/><path d="M6.2 16.5c.6-1.7 2-2.8 3.8-2.8s3.2 1.1 3.8 2.8"/><path d="M14.5 9h2.5M14.5 12h2.5"/></g></g><text x="255" y="122" fill="#9c9c9c" font-family="Menlo" font-size="11" text-anchor="middle">operators</text><g transform="translate(401,18) scale(2)"><g fill="none" stroke="#ffd400" stroke-width="1.5" stroke-linecap="square" stroke-linejoin="miter"><path d="M6.5 3.5h11v17h-11z"/><path d="M9 6.5h6"/><path d="M12.2 9.5l-2.4 6M15.2 9.5l-2.4 6"/></g></g><text x="425" y="122" fill="#9c9c9c" font-family="Menlo" font-size="11" text-anchor="middle">sources</text><g transform="translate(571,18) scale(2)"><g fill="none" stroke="#ffd400" stroke-width="1.5" stroke-linecap="square" stroke-linejoin="miter"><path d="M7 4.5H4.5v15H7M17 4.5h2.5v15H17"/><path d="M9 12.3l2.3 2.3 4.7-5.6"/></g></g><text x="595" y="122" fill="#9c9c9c" font-family="Menlo" font-size="11" text-anchor="middle">review</text><g transform="translate(741,18) scale(2)"><g fill="none" stroke="#ffd400" stroke-width="1.5" stroke-linecap="square" stroke-linejoin="miter"><path d="M4 19.5v-6h4.5l2 3h3l2-3H20v6z"/><path d="M6.5 9.5h2.5l1.5-4 2.6 7 1.6-3h2.8"/></g></g><text x="765" y="122" fill="#9c9c9c" font-family="Menlo" font-size="11" text-anchor="middle">inbox</text><g transform="translate(911,18) scale(2)"><g fill="none" stroke="#ffd400" stroke-width="1.5" stroke-linecap="square" stroke-linejoin="miter"><circle cx="9.5" cy="8.5" r="3.2"/><path d="M4 19.5c.6-3 2.8-5 5.5-5s4.9 2 5.5 5"/><path d="M15.5 5.6a3.2 3.2 0 0 1 0 5.8"/><path d="M17.5 14.9c1.7.8 2.9 2.4 3.3 4.6"/></g></g><text x="935" y="122" fill="#9c9c9c" font-family="Menlo" font-size="11" text-anchor="middle">account</text><g transform="translate(61,158) scale(2)"><g fill="none" stroke="#ffd400" stroke-width="1.5" stroke-linecap="square" stroke-linejoin="miter"><path d="M12 3l7.5 4.3v9.4L12 21l-7.5-4.3V7.3z"/><path d="M4.5 7.3L12 11.6l7.5-4.3"/><path d="M12 11.6V21"/></g></g><text x="85" y="262" fill="#9c9c9c" font-family="Menlo" font-size="11" text-anchor="middle">world-terra</text><g transform="translate(231,158) scale(2)"><g fill="none" stroke="#ffd400" stroke-width="1.5" stroke-linecap="square" stroke-linejoin="miter"><circle cx="12" cy="12.5" r="5.5"/><path d="M2.5 13.5c2.5 3.8 16.5 3.8 19-1"/><rect x="16.5" y="4" width="3.5" height="3.5"/></g></g><text x="255" y="262" fill="#9c9c9c" font-family="Menlo" font-size="11" text-anchor="middle">world-talos</text><g transform="translate(401,158) scale(2)"><g fill="none" stroke="#ffd400" stroke-width="1.5" stroke-linecap="square" stroke-linejoin="miter"><circle cx="11" cy="11" r="5.5"/><path d="M15.3 15.3L20 20"/></g></g><text x="425" y="262" fill="#9c9c9c" font-family="Menlo" font-size="11" text-anchor="middle">search</text><g transform="translate(571,158) scale(2)"><g fill="none" stroke="#ffd400" stroke-width="1.5" stroke-linecap="square" stroke-linejoin="miter"><path d="M4 7h3.2M10.8 7H20"/><rect x="7.2" y="5.4" width="3.6" height="3.2"/><path d="M4 12h8.2M15.8 12H20"/><rect x="12.2" y="10.4" width="3.6" height="3.2"/><path d="M4 17h2.2M8.8 17H20"/><rect x="6.2" y="15.4" width="3.6" height="3.2"/></g></g><text x="595" y="262" fill="#9c9c9c" font-family="Menlo" font-size="11" text-anchor="middle">filter</text><g transform="translate(741,158) scale(2)"><g fill="none" stroke="#ffd400" stroke-width="1.5" stroke-linecap="square" stroke-linejoin="miter"><path d="M20.5 12a8.5 8.5 0 1 1-8.5-8.5c2.38 0 4.54.94 6.14 2.48L20.5 8.3"/><path d="M20.5 3.5v4.8h-4.8"/></g></g><text x="765" y="262" fill="#9c9c9c" font-family="Menlo" font-size="11" text-anchor="middle">reset</text><g transform="translate(911,158) scale(2)"><g fill="none" stroke="#ffd400" stroke-width="1.5" stroke-linecap="square" stroke-linejoin="miter"><path d="M5 19l1.3-4.4 9.3-9.3 3.1 3.1-9.3 9.3z"/><path d="M13.5 7.4l3.1 3.1"/></g></g><text x="935" y="262" fill="#9c9c9c" font-family="Menlo" font-size="11" text-anchor="middle">edit</text><g transform="translate(61,298) scale(2)"><g fill="none" stroke="#ffd400" stroke-width="1.5" stroke-linecap="square" stroke-linejoin="miter"><path d="M4.5 6.5h15"/><path d="M9.5 6.5V4h5v2.5"/><path d="M6.5 6.5l1 13.5h9l1-13.5"/><path d="M10 10.5v6M14 10.5v6"/></g></g><text x="85" y="402" fill="#9c9c9c" font-family="Menlo" font-size="11" text-anchor="middle">trash</text><g transform="translate(231,298) scale(2)"><g fill="none" stroke="#ffd400" stroke-width="1.5" stroke-linecap="square" stroke-linejoin="miter"><path d="M12 4.5v15M4.5 12h15"/></g></g><text x="255" y="402" fill="#9c9c9c" font-family="Menlo" font-size="11" text-anchor="middle">plus</text><g transform="translate(401,298) scale(2)"><g fill="none" stroke="#ffd400" stroke-width="1.5" stroke-linecap="square" stroke-linejoin="miter"><path d="M4 6.5h4.2L13 12M4 17.5h4.2L13 12M13 12h8"/><path d="M18.3 9.3L21 12l-2.7 2.7"/></g></g><text x="425" y="402" fill="#9c9c9c" font-family="Menlo" font-size="11" text-anchor="middle">merge</text><g transform="translate(571,298) scale(2)"><g fill="none" stroke="#ffd400" stroke-width="1.5" stroke-linecap="square" stroke-linejoin="miter"><path d="M4.5 12.5l4.7 4.7L19.5 7"/></g></g><text x="595" y="402" fill="#9c9c9c" font-family="Menlo" font-size="11" text-anchor="middle">check</text><g transform="translate(741,298) scale(2)"><g fill="none" stroke="#ffd400" stroke-width="1.5" stroke-linecap="square" stroke-linejoin="miter"><path d="M6 6l12 12M18 6L6 18"/></g></g><text x="765" y="402" fill="#9c9c9c" font-family="Menlo" font-size="11" text-anchor="middle">x</text><g transform="translate(911,298) scale(2)"><g fill="none" stroke="#ffd400" stroke-width="1.5" stroke-linecap="square" stroke-linejoin="miter"><path d="M6 10.5h12V18.5L16 20H6z"/><path d="M8.5 10.5V7.5a3.5 3.5 0 0 1 7 0v3"/><path d="M12 14v2.5"/></g></g><text x="935" y="402" fill="#9c9c9c" font-family="Menlo" font-size="11" text-anchor="middle">lock</text><g transform="translate(61,438) scale(2)"><g fill="none" stroke="#ffd400" stroke-width="1.5" stroke-linecap="square" stroke-linejoin="miter"><path d="M6 10.5h12V18.5L16 20H6z"/><path d="M8.5 10.5V8a3.5 3.5 0 0 1 6.9-.9"/><path d="M12 14v2.5"/></g></g><text x="85" y="542" fill="#9c9c9c" font-family="Menlo" font-size="11" text-anchor="middle">unlock</text><g transform="translate(231,438) scale(2)"><g fill="none" stroke="#ffd400" stroke-width="1.5" stroke-linecap="square" stroke-linejoin="miter"><path d="M13.5 4.5H4.5v15h15v-9"/><path d="M11 13L19.5 4.5"/><path d="M14 4.5h5.5V10"/></g></g><text x="255" y="542" fill="#9c9c9c" font-family="Menlo" font-size="11" text-anchor="middle">external</text><g transform="translate(401,438) scale(2)"><g fill="none" stroke="#ffd400" stroke-width="1.5" stroke-linecap="square" stroke-linejoin="miter"><path d="M15 3.5H4v11h2"/><path d="M8.5 8.5h12v9.5l-2 2h-10z"/></g></g><text x="425" y="542" fill="#9c9c9c" font-family="Menlo" font-size="11" text-anchor="middle">copy</text><g transform="translate(571,438) scale(2)"><g fill="none" stroke="#ffd400" stroke-width="1.5" stroke-linecap="square" stroke-linejoin="miter"><path d="M12 4v9.5"/><path d="M8 9.5l4 4 4-4"/><path d="M4 16.5v3.5h16v-3.5"/></g></g><text x="595" y="542" fill="#9c9c9c" font-family="Menlo" font-size="11" text-anchor="middle">download</text><g transform="translate(741,438) scale(2)"><g fill="none" stroke="#ffd400" stroke-width="1.5" stroke-linecap="square" stroke-linejoin="miter"><path d="M4 8.5V4h4.5M15.5 4H20v4.5M20 15.5V20h-4.5M8.5 20H4v-4.5"/><path d="M7.5 12h3.4M13.1 12h3.4"/><rect x="10.9" y="10.9" width="2.2" height="2.2" fill="currentColor" stroke="none"/></g></g><text x="765" y="542" fill="#9c9c9c" font-family="Menlo" font-size="11" text-anchor="middle">scan</text><g transform="translate(911,438) scale(2)"><g fill="none" stroke="#ffd400" stroke-width="1.5" stroke-linecap="square" stroke-linejoin="miter"><path d="M3.5 12a8.5 8.5 0 1 0 8.5-8.5c-2.4 0-4.6 1-6.2 2.5L3.5 8.4"/><path d="M3.5 3.5v4.9h4.9"/><path d="M12 7.5V12l3.2 1.9"/></g></g><text x="935" y="542" fill="#9c9c9c" font-family="Menlo" font-size="11" text-anchor="middle">history</text><g transform="translate(61,578) scale(2)"><g fill="none" stroke="#ffd400" stroke-width="1.5" stroke-linecap="square" stroke-linejoin="miter"><path d="M4 4.5h16v11.5h-8.5l-4 4V16H4z"/><path d="M8 9h8M8 12h5"/></g></g><text x="85" y="682" fill="#9c9c9c" font-family="Menlo" font-size="11" text-anchor="middle">comment</text><g transform="translate(231,578) scale(2)"><g fill="none" stroke="#ffd400" stroke-width="1.5" stroke-linecap="square" stroke-linejoin="miter"><path d="M19.5 12h-15"/><path d="M10 6.5L4.5 12l5.5 5.5"/></g></g><text x="255" y="682" fill="#9c9c9c" font-family="Menlo" font-size="11" text-anchor="middle">back</text><g transform="translate(401,578) scale(2)"><g fill="none" stroke="#ffd400" stroke-width="1.5" stroke-linecap="square" stroke-linejoin="miter"><path d="M12 3.5l2.2 6.3 6.3 2.2-6.3 2.2L12 20.5l-2.2-6.3-6.3-2.2 6.3-2.2z"/></g></g><text x="425" y="682" fill="#9c9c9c" font-family="Menlo" font-size="11" text-anchor="middle">spark</text><g transform="translate(571,578) scale(2)"><g fill="none" stroke="#ffd400" stroke-width="1.5" stroke-linecap="square" stroke-linejoin="miter"><rect x="5" y="5" width="14" height="14"/><rect x="10.75" y="10.75" width="2.5" height="2.5" fill="currentColor" stroke="none"/></g></g><text x="595" y="682" fill="#9c9c9c" font-family="Menlo" font-size="11" text-anchor="middle">status-pending</text><g transform="translate(741,578) scale(2)"><g fill="none" stroke="#ffd400" stroke-width="1.5" stroke-linecap="square" stroke-linejoin="miter"><rect x="4.5" y="4.5" width="15" height="15"/><path d="M8.5 12.3l2.4 2.4 4.8-5.4"/></g></g><text x="765" y="682" fill="#9c9c9c" font-family="Menlo" font-size="11" text-anchor="middle">status-ok</text><g transform="translate(911,578) scale(2)"><g fill="none" stroke="#ffd400" stroke-width="1.5" stroke-linecap="square" stroke-linejoin="miter"><path d="M12 4.5L21 19.5H3z"/><path d="M12 10.5v4"/><rect x="11.6" y="16.4" width="0.8" height="1.7" fill="currentColor" stroke="none"/></g></g><text x="935" y="682" fill="#9c9c9c" font-family="Menlo" font-size="11" text-anchor="middle">status-warn</text><g transform="translate(61,718) scale(2)"><g fill="none" stroke="#ffd400" stroke-width="1.5" stroke-linecap="square" stroke-linejoin="miter"><path d="M8.2 4.5h7.6l3.7 3.7v7.6l-3.7 3.7H8.2l-3.7-3.7V8.2z"/><path d="M9.5 9.5l5 5M14.5 9.5l-5 5"/></g></g><text x="85" y="822" fill="#9c9c9c" font-family="Menlo" font-size="11" text-anchor="middle">status-danger</text><g transform="translate(231,718) scale(2)"><g fill="none" stroke="#ffd400" stroke-width="1.5" stroke-linecap="square" stroke-linejoin="miter"><rect x="4.5" y="4.5" width="15" height="15"/><rect x="11.6" y="7.6" width="0.8" height="1.7" fill="currentColor" stroke="none"/><path d="M12 11v5.5"/></g></g><text x="255" y="822" fill="#9c9c9c" font-family="Menlo" font-size="11" text-anchor="middle">status-info</text><g transform="translate(401,718) scale(2)"><g fill="none" stroke="#ffd400" stroke-width="1.5" stroke-linecap="square" stroke-linejoin="miter"><path d="M6.5 4.5H4v15h2.5M17.5 4.5H20v15h-2.5"/><path d="M6.5 12h2.3l1.5-3.5 2.6 7 1.6-3.5h2.5"/></g></g><text x="425" y="822" fill="#9c9c9c" font-family="Menlo" font-size="11" text-anchor="middle">status-anomaly</text><g transform="translate(571,718) scale(2)"><g fill="none" stroke="#ffd400" stroke-width="1.5" stroke-linecap="square" stroke-linejoin="miter"><path d="M6.5 9.5l5.5 5.5 5.5-5.5"/></g></g><text x="595" y="822" fill="#9c9c9c" font-family="Menlo" font-size="11" text-anchor="middle">chevron-down</text><g transform="translate(741,718) scale(2)"><g fill="none" stroke="#ffd400" stroke-width="1.5" stroke-linecap="square" stroke-linejoin="miter"><path d="M14.5 6.5L9 12l5.5 5.5"/></g></g><text x="765" y="822" fill="#9c9c9c" font-family="Menlo" font-size="11" text-anchor="middle">chevron-left</text><g transform="translate(911,718) scale(2)"><g fill="none" stroke="#ffd400" stroke-width="1.5" stroke-linecap="square" stroke-linejoin="miter"><path d="M8.5 9.5L12 6l3.5 3.5M8.5 14.5L12 18l3.5-3.5"/></g></g><text x="935" y="822" fill="#9c9c9c" font-family="Menlo" font-size="11" text-anchor="middle">sort</text></svg>